<svg width="208" height="40" viewBox="0 0 208 40" fill="none" xmlns="http://www.w3.org/2000/svg">
<path fill-rule="evenodd" clip-rule="evenodd" d="M14.5837 3.33331C14.5837 2.64296 15.1433 2.08331 15.8337 2.08331H20.8337C21.524 2.08331 22.0837 2.64296 22.0837 3.33331C22.0837 4.13579 23.003 5.41665 25.0003 5.41665C26.9977 5.41665 27.917 4.13579 27.917 3.33331C27.917 2.64296 28.4766 2.08331 29.167 2.08331H34.167C34.8573 2.08331 35.417 2.64296 35.417 3.33331V28.3333C35.417 29.0237 34.8573 29.5833 34.167 29.5833H29.167C28.4766 29.5833 27.917 29.0237 27.917 28.3333C27.917 27.4529 27.0228 26.25 25.0003 26.25C24.31 26.25 23.7503 25.6903 23.7503 25C23.7503 24.3096 24.31 23.75 25.0003 23.75C27.4858 23.75 29.5962 25.0962 30.2258 27.0833H32.917V4.58331H30.2139C29.5731 6.50684 27.4889 7.91665 25.0003 7.91665C22.5118 7.91665 20.4276 6.50684 19.7868 4.58331H17.0837V15C17.0837 15.6903 16.524 16.25 15.8337 16.25C15.1433 16.25 14.5837 15.6903 14.5837 15V3.33331Z" fill="#222222"/>
<path fill-rule="evenodd" clip-rule="evenodd" d="M5.41699 11.6666C5.41699 10.9763 5.97664 10.4166 6.66699 10.4166H11.667C12.3573 10.4166 12.917 10.9763 12.917 11.6666C12.917 12.4691 13.8363 13.75 15.8337 13.75C17.831 13.75 18.7503 12.4691 18.7503 11.6666C18.7503 10.9763 19.31 10.4166 20.0003 10.4166H25.0003C25.6907 10.4166 26.2503 10.9763 26.2503 11.6666V36.6666C26.2503 37.357 25.6907 37.9166 25.0003 37.9166H20.0003C19.31 37.9166 18.7503 37.357 18.7503 36.6666C18.7503 35.7863 17.8562 34.5833 15.8337 34.5833C13.8112 34.5833 12.917 35.7863 12.917 36.6666C12.917 37.357 12.3573 37.9166 11.667 37.9166H6.66699C5.97664 37.9166 5.41699 37.357 5.41699 36.6666V11.6666ZM7.91699 12.9166V35.4166H10.6082C11.2378 33.4295 13.3482 32.0833 15.8337 32.0833C18.3191 32.0833 20.4295 33.4295 21.0591 35.4166H23.7503V12.9166H21.0472C20.4064 14.8402 18.3222 16.25 15.8337 16.25C13.3451 16.25 11.2609 14.8402 10.6201 12.9166H7.91699Z" fill="#222222"/>
<path d="M11.667 21.6666C12.5875 21.6666 13.3337 20.9205 13.3337 20C13.3337 19.0795 12.5875 18.3333 11.667 18.3333C10.7465 18.3333 10.0003 19.0795 10.0003 20C10.0003 20.9205 10.7465 21.6666 11.667 21.6666Z" fill="#222222"/>
<path d="M15.8337 21.6666C16.7541 21.6666 17.5003 20.9205 17.5003 20C17.5003 19.0795 16.7541 18.3333 15.8337 18.3333C14.9132 18.3333 14.167 19.0795 14.167 20C14.167 20.9205 14.9132 21.6666 15.8337 21.6666Z" fill="#222222"/>
<path d="M20.0003 21.6666C20.9208 21.6666 21.667 20.9205 21.667 20C21.667 19.0795 20.9208 18.3333 20.0003 18.3333C19.0799 18.3333 18.3337 19.0795 18.3337 20C18.3337 20.9205 19.0799 21.6666 20.0003 21.6666Z" fill="#222222"/>
<g clip-path="url(#clip0_2087_5286)">
<path d="M162.561 8.00818H120.625C120.519 8.00787 120.414 8.02024 120.31 8.04508C119.956 8.12233 119.637 8.33858 119.408 8.6566C119.178 8.97463 119.052 9.37454 119.052 9.78748V30.192C119.052 30.6639 119.215 31.1165 119.506 31.4501C119.797 31.7838 120.192 31.9713 120.603 31.9713C120.681 31.9694 120.759 31.9612 120.836 31.9467H136.924C137.128 31.9467 137.33 31.9006 137.519 31.8109C137.707 31.7213 137.879 31.59 138.023 31.4243C138.168 31.2587 138.282 31.0621 138.36 30.8458C138.439 30.6294 138.479 30.3975 138.479 30.1633C138.479 29.6899 138.315 29.2359 138.024 28.9008C137.732 28.5657 137.336 28.3769 136.924 28.3758H122.162V21.7875H136.938C137.338 21.7655 137.715 21.5678 137.992 21.2354C138.268 20.9029 138.422 20.4613 138.422 20.002C138.422 19.5428 138.268 19.1011 137.992 18.7687C137.715 18.4363 137.338 18.2386 136.938 18.2166H122.162V11.575H147.52V30.2125C147.521 30.6804 147.684 31.1288 147.973 31.4593C148.262 31.7898 148.653 31.9754 149.061 31.9754H149.093C149.501 31.9754 149.893 31.7898 150.182 31.4593C150.47 31.1288 150.633 30.6804 150.634 30.2125V11.575H162.561C162.973 11.575 163.369 11.3871 163.66 11.0526C163.952 10.7182 164.116 10.2646 164.116 9.79158C164.116 9.3186 163.952 8.86498 163.66 8.53053C163.369 8.19608 162.973 8.00818 162.561 8.00818Z" fill="#222222"/>
<path d="M184.036 28.3799H167.723C166.864 28.3799 166.168 29.1783 166.168 30.1633C166.168 31.1482 166.864 31.9467 167.723 31.9467H184.036C184.895 31.9467 185.591 31.1482 185.591 30.1633C185.591 29.1783 184.895 28.3799 184.036 28.3799Z" fill="#222222"/>
<path d="M184.036 18.2166H167.723C167.323 18.2386 166.946 18.4363 166.669 18.7687C166.393 19.1012 166.239 19.5428 166.239 20.0021C166.239 20.4613 166.393 20.903 166.669 21.2354C166.946 21.5678 167.323 21.7655 167.723 21.7875H184.036C184.436 21.7655 184.813 21.5678 185.09 21.2354C185.366 20.903 185.52 20.4613 185.52 20.0021C185.52 19.5428 185.366 19.1012 185.09 18.7687C184.813 18.4363 184.436 18.2386 184.036 18.2166Z" fill="#222222"/>
<path d="M184.036 8H167.723C167.311 8 166.915 8.1879 166.623 8.52235C166.332 8.8568 166.168 9.31041 166.168 9.7834C166.168 10.2564 166.332 10.71 166.623 11.0444C166.915 11.3789 167.311 11.5668 167.723 11.5668H184.036C184.241 11.5668 184.443 11.5207 184.631 11.431C184.82 11.3414 184.992 11.2101 185.136 11.0444C185.28 10.8788 185.395 10.6822 185.473 10.4659C185.551 10.2495 185.591 10.0176 185.591 9.7834C185.591 9.5492 185.551 9.31729 185.473 9.10092C185.395 8.88455 185.28 8.68795 185.136 8.52235C184.992 8.35674 184.82 8.22538 184.631 8.13576C184.443 8.04613 184.241 8 184.036 8Z" fill="#222222"/>
<path d="M65.8684 8.00818H49.5552C49.1427 8.00818 48.7472 8.19607 48.4555 8.53053C48.1639 8.86498 48 9.31859 48 9.79158C48 10.2646 48.1639 10.7182 48.4555 11.0526C48.7472 11.3871 49.1427 11.575 49.5552 11.575H56.1548V30.192C56.1548 30.6639 56.3183 31.1165 56.6093 31.4501C56.9002 31.7838 57.2949 31.9713 57.7064 31.9713C58.1179 31.9713 58.5126 31.7838 58.8035 31.4501C59.0945 31.1165 59.258 30.6639 59.258 30.192V11.575H65.8576C66.2701 11.575 66.6656 11.3871 66.9573 11.0526C67.249 10.7182 67.4128 10.2646 67.4128 9.79158C67.4128 9.31859 67.249 8.86498 66.9573 8.53053C66.6656 8.19607 66.2701 8.00818 65.8576 8.00818H65.8684Z" fill="#222222"/>
<path d="M70.8195 8.00818H70.8123C69.9554 8.00818 69.2607 8.8048 69.2607 9.78747V30.1797C69.2607 31.1624 69.9554 31.959 70.8123 31.959H70.8195C71.6764 31.959 72.3711 31.1624 72.3711 30.1797V9.78747C72.3711 8.8048 71.6764 8.00818 70.8195 8.00818Z" fill="#222222"/>
<path d="M98.3481 8.00818C97.9357 8.00818 97.5401 8.19607 97.2485 8.53053C96.9568 8.86498 96.793 9.31859 96.793 9.79158V30.192C96.8121 30.6507 96.9845 31.0834 97.2744 31.4003C97.5643 31.7171 97.9494 31.8939 98.3499 31.8939C98.7504 31.8939 99.1355 31.7171 99.4254 31.4003C99.7153 31.0834 99.8877 30.6507 99.9069 30.192V9.79158C99.9059 9.31821 99.7413 8.86461 99.4491 8.53028C99.1569 8.19594 98.7609 8.00818 98.3481 8.00818Z" fill="#222222"/>
<path d="M115.373 8.00818C114.946 8.00818 114.537 8.20255 114.235 8.54854C113.933 8.89452 113.764 9.36378 113.764 9.85307V12.3129C113.764 13.9001 113.214 15.4224 112.236 16.5454C111.258 17.6685 109.932 18.3005 108.548 18.3027H102.642C102.271 18.3026 101.911 18.4495 101.624 18.7184C101.337 18.9874 101.139 19.3619 101.065 19.7786C101.042 19.9026 101.03 20.029 101.029 20.1558C101.029 20.6451 101.199 21.1143 101.501 21.4603C101.802 21.8063 102.211 22.0007 102.638 22.0007H108.544C109.927 22.0018 111.253 22.6323 112.231 23.7538C113.209 24.8753 113.759 26.3961 113.76 27.9822V30.11C113.76 30.5993 113.93 31.0685 114.231 31.4145C114.533 31.7605 114.942 31.9549 115.369 31.9549C115.796 31.9549 116.205 31.7605 116.507 31.4145C116.808 31.0685 116.978 30.5993 116.978 30.11V27.9822C116.977 26.4532 116.66 24.9463 116.053 23.585C115.446 22.2238 114.566 21.0471 113.485 20.1517C114.567 19.2571 115.448 18.0807 116.056 16.7194C116.664 15.358 116.981 13.8506 116.981 12.3211V9.86127C116.982 9.61846 116.941 9.37792 116.86 9.15338C116.779 8.92884 116.661 8.72471 116.512 8.55263C116.362 8.38056 116.185 8.24391 115.989 8.15049C115.794 8.05707 115.584 8.00872 115.373 8.00818Z" fill="#222222"/>
<path d="M205.226 20.5944C206.072 19.9823 206.77 19.1355 207.254 18.1323C207.739 17.129 207.996 16.0018 208 14.8548C207.979 13.0157 207.323 11.2611 206.176 9.97602C205.029 8.69093 203.483 7.98027 201.88 7.99997H189.195C188.769 7.99997 188.359 8.19435 188.058 8.54033C187.756 8.88631 187.586 9.35557 187.586 9.84486C187.586 10.3342 187.756 10.8034 188.058 11.1494C188.359 11.4954 188.769 11.6898 189.195 11.6898H201.88C202.256 11.6678 202.633 11.734 202.987 11.8842C203.34 12.0344 203.664 12.2655 203.937 12.5634C204.21 12.8614 204.428 13.22 204.577 13.6174C204.725 14.0148 204.802 14.4428 204.802 14.8753C204.802 15.3078 204.725 15.7357 204.577 16.1331C204.428 16.5306 204.21 16.8892 203.937 17.1871C203.664 17.4851 203.34 17.7162 202.987 17.8664C202.633 18.0166 202.256 18.0827 201.88 18.0608H189.195C188.769 18.0608 188.359 18.2552 188.058 18.6011C187.756 18.9471 187.586 19.4164 187.586 19.9057C187.586 20.395 187.756 20.8642 188.058 21.2102C188.359 21.5562 188.769 21.7506 189.195 21.7506H193.332C193.433 21.7718 193.536 21.7828 193.639 21.7834H199.545C200.923 21.7855 202.244 22.4119 203.221 23.5261C204.198 24.6403 204.752 26.1521 204.761 27.7321V30.1141C204.761 30.6034 204.931 31.0726 205.232 31.4186C205.534 31.7646 205.943 31.959 206.37 31.959C206.797 31.959 207.206 31.7646 207.508 31.4186C207.809 31.0726 207.979 30.6034 207.979 30.1141V27.7321C207.979 26.388 207.735 25.0586 207.261 23.8293C206.787 22.6 206.094 21.4981 205.226 20.5944Z" fill="#222222"/>
<path d="M92.7857 11.6693C93.2095 11.6693 93.616 11.4762 93.9157 11.1325C94.2154 10.7888 94.3838 10.3227 94.3838 9.83668C94.3838 9.35065 94.2154 8.88452 93.9157 8.54084C93.616 8.19717 93.2095 8.00409 92.7857 8.00409H78.1492C77.2959 8.00409 76.4775 8.39283 75.8741 9.0848C75.2706 9.77677 74.9316 10.7153 74.9316 11.6939V28.3184C74.9316 29.297 75.2706 30.2355 75.8741 30.9275C76.4775 31.6194 77.2959 32.0082 78.1492 32.0082H92.7857C93.2095 32.0082 93.616 31.8151 93.9157 31.4714C94.2154 31.1278 94.3838 30.6616 94.3838 30.1756C94.3838 29.6896 94.2154 29.2234 93.9157 28.8798C93.616 28.5361 93.2095 28.343 92.7857 28.343L78.1278 28.3225L78.1457 11.6775L92.7857 11.6693Z" fill="#222222"/>
</g>
<defs>
<clipPath id="clip0_2087_5286">
<rect width="160" height="24" fill="white" transform="translate(48 8)"/>
</clipPath>
</defs>
</svg>
